<?xml version="1.0" encoding="UTF-8" standalone="no"?>
<svg
   xmlns:dc="http://purl.org/dc/elements/1.1/"
   xmlns:cc="http://creativecommons.org/ns#"
   xmlns:rdf="http://www.w3.org/1999/02/22-rdf-syntax-ns#"
   xmlns:svg="http://www.w3.org/2000/svg"
   xmlns="http://www.w3.org/2000/svg"
   xmlns:sodipodi="http://sodipodi.sourceforge.net/DTD/sodipodi-0.dtd"
   xmlns:inkscape="http://www.inkscape.org/namespaces/inkscape"
   sodipodi:docname="logo.svg"
   inkscape:version="1.0alpha (9dee831, 2019-01-15)"
   id="svg8"
   version="1.1"
   viewBox="0 0 143.48193 143.41585"
   height="143.41585mm"
   width="143.48193mm">
  <defs
     id="defs2" />
  <sodipodi:namedview
     inkscape:window-maximized="1"
     inkscape:window-y="0"
     inkscape:window-x="1280"
     inkscape:window-height="858"
     inkscape:window-width="1600"
     showgrid="false"
     inkscape:document-rotation="0"
     inkscape:current-layer="layer1"
     inkscape:document-units="mm"
     inkscape:cy="536.87189"
     inkscape:cx="379.80913"
     inkscape:zoom="0.35"
     inkscape:pageshadow="2"
     inkscape:pageopacity="0.0"
     borderopacity="1.0"
     bordercolor="#666666"
     pagecolor="#ffffff"
     id="base" />
  <metadata
     id="metadata5">
    <rdf:RDF>
      <cc:Work
         rdf:about="">
        <dc:format>image/svg+xml</dc:format>
        <dc:type
           rdf:resource="http://purl.org/dc/dcmitype/StillImage" />
        <dc:title></dc:title>
      </cc:Work>
    </rdf:RDF>
  </metadata>
  <g
     transform="translate(-5.3421674,-6.1193125)"
     id="layer1"
     inkscape:groupmode="layer"
     inkscape:label="Layer 1">
    <path
       inkscape:connector-curvature="0"
       id="path24"
       d="M 69.761794,149.35224 C 45.140944,146.66333 23.828764,131.8862 12.897614,109.92458 9.3507342,102.79859 7.1947442,95.960169 5.9578842,87.912949 c -0.76221,-4.95905 -0.8276,-14.24357 -0.13551,-19.24129 2.84784,-20.56492 13.7650598,-38.410104 30.5632198,-49.958362 9.20618,-6.328984 19.23587,-10.2375749 30.73037,-11.9756759 4.571526,-0.691266 13.792656,-0.831379 18.123946,-0.275384 11.47157,1.472563 22.39779,5.4832409 31.54096,11.5777059 18.19886,12.130622 29.79078,31.659596 31.8472,53.653166 0.38236,4.08929 0.18273,12.02151 -0.40208,15.97657 -3.10855,21.023201 -14.41956,38.817041 -32.02983,50.387491 -8.36214,5.49416 -18.3189,9.24688 -28.97187,10.91954 -3.28893,0.5164 -14.05303,0.74788 -17.462496,0.37553 z m 16.933326,-3.80909 c 19.72331,-2.91219 36.3712,-14.99729 45.93805,-33.34753 6.19632,-11.88521 9.20598,-24.993191 8.74794,-38.100001 C 140.58095,51.198729 130.24072,31.636407 112.88887,20.192128 104.40634,14.59754 94.81952,11.388866 82.59629,10.053318 l -1.5853,-0.1732149 1.35764,1.4355029 c 0.7467,0.789527 1.59424,1.903018 1.88343,2.474423 1.17724,2.326153 1.41385,5.709965 0.69378,9.921983 -0.41503,2.427716 -2.49808,9.865857 -3.05365,10.903945 -0.25827,0.482589 -0.20799,0.506685 0.74158,0.355409 2.42593,-0.386469 8.56736,-0.490651 10.68348,-0.181234 4.7043,0.687861 9.54005,2.569037 13.64129,5.306657 3.1335,2.09165 7.80045,6.92011 10.23711,10.59139 4.3184,6.50647 7.09746,13.89725 8.71179,23.16855 0.52403,3.00961 0.59442,4.32251 0.59442,11.0868 0,6.76429 -0.0704,8.07719 -0.59442,11.0868 -1.84994,10.624461 -5.24641,19.030361 -10.65234,26.363401 -1.90266,2.58092 -6.21705,6.97205 -8.71451,8.86949 -7.68324,5.83735 -17.5841,9.1124 -27.58703,9.12536 -5.34897,0.007 -9.054366,-0.86282 -13.806076,-3.24064 -9.69804,-4.85304 -17.28217,-15.21596 -19.64799,-26.84693 -0.74409,-3.65814 -0.66655,-12.832131 0.14696,-17.388561 1.79185,-10.03603 5.01421,-16.39015 11.93961,-23.54356 5.79147,-5.98213 13.008866,-10.3537 19.782206,-11.98205 2.21732,-0.53306 6.81512,-0.52637 9.63456,0.014 10.44078,2.00109 17.67845,9.79203 19.28152,20.75545 0.48747,3.33385 0.20455,8.84176 -0.61467,11.96613 -2.15592,8.2224 -7.1284,14.950081 -13.26415,17.946191 -6.47046,3.15955 -12.27766,2.06892 -15.88253,-2.98284 -1.97616,-2.76936 -2.82141,-5.476871 -2.81516,-9.017631 0.006,-3.66583 1.13206,-6.29062 3.74619,-8.73584 4.43903,-4.15219 9.86419,-3.32015 12.51962,1.9201 2.08355,4.11168 1.80421,7.81964 -0.7586,10.06982 -1.04818,0.920311 -1.88335,1.040801 -3.04617,0.43948 -1.66056,-0.85871 -2.02643,-2.36369 -0.93959,-3.86498 0.35796,-0.49446 0.90687,-1.36648 1.21979,-1.93782 1.12791,-2.05939 0.076,-4.8382 -2.2595,-5.96879 -1.06202,-0.51412 -1.31908,-0.54734 -2.01246,-0.26014 -1.90182,0.78776 -3.68918,4.28872 -3.67949,7.20713 0.0142,4.27406 1.84163,8.081031 4.54893,9.476491 1.33295,0.68705 3.97035,0.67681 5.82145,-0.0226 4.16436,-1.57348 9.1267,-7.345931 11.37307,-13.229741 0.85551,-2.24078 0.85865,-2.26676 0.86365,-7.14375 0.005,-4.51581 -0.0502,-5.09302 -0.70855,-7.45503 -1.33387,-4.78585 -3.12068,-7.91829 -6.114,-10.71839 -2.1177,-1.98101 -4.40253,-3.14278 -7.30562,-3.71472 -1.88267,-0.37091 -2.52143,-0.38678 -4.43451,-0.11017 -9.88802,1.42965 -18.830896,8.00761 -23.523446,17.30273 -2.34956,4.65407 -3.67179,8.89476 -4.47517,14.35287 -0.50343,3.42022 -0.38342,5.64872 0.56047,10.408011 1.54637,7.79703 5.02297,15.65337 8.63626,19.51599 1.32562,1.4171 2.10349,1.9675 4.28968,3.0353 8.638186,4.21917 17.449396,3.45287 26.272446,-2.28488 5.64795,-3.67293 11.44924,-9.04648 14.26357,-13.21191 9.34791,-13.835571 12.86129,-34.885371 8.40101,-50.333211 -4.41654,-15.29638 -15.63131,-23.26867 -31.59466,-22.45985 -4.90528,0.24854 -4.61845,0.0842 -5.84311,3.34667 -1.459,3.88667 -4.19103,9.3518 -5.63572,11.27367 -1.68945,2.24746 -5.589296,5.89088 -7.320616,6.83925 -1.21744,0.66688 -1.73581,0.79011 -3.33905,0.79375 -2.10613,0.005 -2.90707,-0.38781 -3.96689,-1.94441 -1.27194,-1.86815 -0.99703,-5.16787 0.66657,-8.00091 2.44619,-4.16573 9.28128,-9.98779 15.252356,-12.9918 1.16416,-0.58568 2.14329,-1.087587 2.17584,-1.115342 0.0325,-0.02776 0.37224,-1.82962 0.75489,-4.00414 1.82369,-10.363745 0.40141,-14.001311 -5.45171,-13.943092 -2.39929,0.02387 -5.977946,0.834295 -8.250006,1.868315 -0.91544,0.416616 -2.84413,1.558846 -4.286,2.538291 -5.86986,3.987345 -10.28151,8.122801 -14.0966,13.214093 -4.42069,5.899465 -6.44277,9.776205 -6.93639,13.298435 -0.14062,1.00345 -0.32443,6.46789 -0.40847,12.1432 -0.16928,11.43241 -0.42875,17.34577 -1.20158,27.38437 -0.7213,9.3692 -1.10959,19.864621 -1.15506,31.220841 l -0.0387,9.65729 0.68342,1.45682 c 1.13252,2.41415 2.47335,3.43314 9.50304,7.22207 6.86188,3.69848 17.09833,6.60175 26.193746,7.42908 2.41728,0.21988 11.33064,-0.09 14.02291,-0.48752 z M 26.826524,119.93468 c 2.0061,-2.17678 4.31358,-17.29326 6.00768,-39.356771 2.08589,-27.16614 2.01136,-29.86562 -1.08254,-39.21138 -0.66001,-1.99371 -1.81344,-4.851211 -2.56318,-6.350001 -1.85317,-3.70468 -2.0768,-3.7285 -4.65474,-0.4958 -5.85766,7.345391 -10.19156,15.578621 -12.82361,24.361341 -3.1120798,10.38455 -3.4982698,22.83971 -1.05006,33.86667 1.32296,5.95871 4.0915,13.188761 7.03669,18.376261 2.60325,4.58524 4.1635,6.63687 6.38202,8.39196 1.47638,1.16797 1.98505,1.2453 2.74774,0.41772 z m 39.99692,-64.345451 c 1.19492,-0.61792 4.544136,-4.39651 6.071486,-6.84986 1.73944,-2.79402 3.15749,-6.01902 3.38887,-7.70713 l 0.17411,-1.27025 -1.29754,0.7416 c -3.79504,2.16904 -8.854806,6.9168 -10.151866,9.52585 -0.74409,1.49672 -1.05054,4.45606 -0.55696,5.37832 0.35563,0.6645 1.29834,0.73663 2.3719,0.18147 z m -26.72715,-15.69101 c 1.03835,-2.05368 4.06776,-6.604613 6.12034,-9.19427 2.37619,-2.997954 8.84628,-9.522669 12.43266,-12.537633 3.25821,-2.739083 7.11711,-5.514927 9.60319,-6.907913 0.84337,-0.472551 1.47977,-0.91281 1.41423,-0.97835 -0.20641,-0.206409 -6.78516,0.993439 -9.95255,1.815171 -3.76222,0.976053 -6.6619,2.086195 -10.57222,4.047572 -5.66385,2.840937 -8.13592,4.802622 -8.72884,6.926681 -0.50708,1.816549 -1.05211,8.038525 -1.16128,13.256868 -0.0586,2.801274 -0.0656,5.093234 -0.0156,5.093234 0.05,0 0.43704,-0.68461 0.8601,-1.52136 z"
       style="fill:#000000;stroke-width:0.264583" />
  </g>
</svg>
